# xmcd
#
# Track frame offsets:
#	150
#	19357
#	43369
#	59111
#	82283
#	100460
#	119022
#	136654
#	162491
#	192188
#	208335
#	229532
#	255294
#	274346
#	294313
#
# Disc length: 4204 seconds
#
# Revision: 0
# Processed by: cddbd v1.5.2PL0 Copyright (c) Steve Scherf et al.
# Submitted via: EasyCDDAExtractor 2010.4.0.0
#
DISCID=ed106a0f
DTITLE=Various Artist - 2010 Steppers Connection Vol. 1
DYEAR=2010
DGENRE=R&B
TTITLE0=Ronnie Jordan - Say No More
TTITLE1=Good Chillaz - Stoned Love
TTITLE2=N'Dambi - What It Takes
TTITLE3=N'Dambi - Ooo Baby
TTITLE4=Rhian Benson - Words Hurt Too
TTITLE5=R. Kelly  - Exit
TTITLE6=Usher - Little Freak
TTITLE7=Wax Taylor - Ungodly Fruit (The Man Rmx)
TTITLE8=Cordell - Do What U Want Me 2
TTITLE9=Emerald Jade - U Bring Me Joy
TTITLE10=Bobby Brown - Forever
TTITLE11=Markey G - The REcord Is Over
TTITLE12=Dr. Dre - Lil' Ghetto Boy
TTITLE13=Double D - El Stop
TTITLE14=Lee Shot Williams - Juke Joint Slide
EXTD=
EXTT0=
EXTT1=
EXTT2=
EXTT3=
EXTT4=
EXTT5=
EXTT6=
EXTT7=
EXTT8=
EXTT9=
EXTT10=
EXTT11=
EXTT12=
EXTT13=
EXTT14=
PLAYORDER=
